<mxfile host="app.diagrams.net" modified="2020-06-30T05:00:51.579Z" agent="5.0 (Macintosh; Intel Mac OS X 10_15_2) AppleWebKit/537.36 (KHTML, like Gecko) Chrome/83.0.4103.61 Safari/537.36" etag="zyLj2mlBQJZb92ETSTL-" version="13.3.5" type="github">
  <diagram id="JEAOWpadwL9CqglTElt5" name="Page-1">
    <mxGraphModel dx="807" dy="386" grid="1" gridSize="10" guides="1" tooltips="1" connect="1" arrows="1" fold="1" page="1" pageScale="1" pageWidth="850" pageHeight="1100" math="0" shadow="0">
      <root>
        <mxCell id="0" />
        <mxCell id="1" parent="0" />
        <mxCell id="aw7KAJtfE1zUoYK_YLW_-9" value="&lt;span style=&quot;font-family: &amp;#34;helvetica&amp;#34; , &amp;#34;arial&amp;#34; , sans-serif ; font-size: 0px&quot;&gt;%3CmxGraphModel%3E%3Croot%3E%3CmxCell%20id%3D%220%22%2F%3E%3CmxCell%20id%3D%221%22%20parent%3D%220%22%2F%3E%3CmxCell%20id%3D%222%22%20value%3D%22%26lt%3Bfont%20color%3D%26quot%3B%23ff0000%26quot%3B%26gt%3B%26lt%3Bb%26gt%3B3%26lt%3B%2Fb%26gt%3B%26lt%3B%2Ffont%26gt%3B%22%20style%3D%22text%3Bhtml%3D1%3Bresizable%3D0%3Bpoints%3D%5B%5D%3Bautosize%3D1%3Balign%3Dleft%3BverticalAlign%3Dtop%3BspacingTop%3D-4%3B%22%20vertex%3D%221%22%20parent%3D%221%22%3E%3CmxGeometry%20x%3D%22549.5%22%20y%3D%22340%22%20width%3D%2220%22%20height%3D%2220%22%20as%3D%22geometry%22%2F%3E%3C%2FmxCell%3E%3C%2Froot%3E%3C%2FmxGraphModel%3E&lt;/span&gt;" style="html=1;whiteSpace=wrap;fontSize=11;spacing=0;strokeColor=#F7981F;fillOpacity=0;rounded=1;absoluteArcSize=1;arcSize=36;fillColor=#000000;strokeWidth=1.7999999999999998;" parent="1" vertex="1">
          <mxGeometry x="50.5" y="271" width="252" height="420" as="geometry" />
        </mxCell>
        <mxCell id="aw7KAJtfE1zUoYK_YLW_-1" value="Dispute Management Workflow " style="html=1;whiteSpace=wrap;fontSize=35;fontColor=#0c7cba;fontStyle=1;spacing=0;strokeOpacity=100;rounded=1;absoluteArcSize=1;arcSize=6;strokeWidth=1.2;" parent="1" vertex="1">
          <mxGeometry x="145" y="23" width="691" height="47" as="geometry" />
        </mxCell>
        <mxCell id="aw7KAJtfE1zUoYK_YLW_-2" value="Braintree Payment Gateway" style="html=1;whiteSpace=wrap;shape=mxgraph.aws3.internet_gateway;labelPosition=center;verticalLabelPosition=bottom;align=center;verticalAlign=top;fontSize=11;spacing=5;strokeOpacity=100;rounded=1;absoluteArcSize=1;arcSize=6;fillColor=#f58536;strokeWidth=1.2;" parent="1" vertex="1">
          <mxGeometry x="750" y="113" width="64.5" height="67" as="geometry" />
        </mxCell>
        <mxCell id="aw7KAJtfE1zUoYK_YLW_-3" value="AWS  Dispute Database" style="html=1;whiteSpace=wrap;shape=mxgraph.aws3.ms_sql_instance;labelPosition=center;verticalLabelPosition=bottom;align=center;verticalAlign=top;fontSize=11;spacing=5;strokeOpacity=100;fillOpacity=100;rounded=1;absoluteArcSize=1;arcSize=6;fillColor=#0c7cba;strokeWidth=1.2;" parent="1" vertex="1">
          <mxGeometry x="756.5" y="550" width="68" height="60" as="geometry" />
        </mxCell>
        <mxCell id="MeqBdPvJB-XtYODPSLt9-2" style="edgeStyle=orthogonalEdgeStyle;rounded=0;orthogonalLoop=1;jettySize=auto;html=1;" edge="1" parent="1" source="aw7KAJtfE1zUoYK_YLW_-4" target="aw7KAJtfE1zUoYK_YLW_-26">
          <mxGeometry relative="1" as="geometry" />
        </mxCell>
        <mxCell id="aw7KAJtfE1zUoYK_YLW_-4" value="" style="html=1;whiteSpace=wrap;shape=mxgraph.aws3.event_time_based;labelPosition=center;verticalLabelPosition=bottom;align=center;verticalAlign=top;fontSize=11;spacing=5;strokeOpacity=100;rounded=1;absoluteArcSize=1;arcSize=6;fillColor=#759c3e;strokeWidth=1.2;" parent="1" vertex="1">
          <mxGeometry x="40" y="109" width="50" height="50" as="geometry" />
        </mxCell>
        <mxCell id="aw7KAJtfE1zUoYK_YLW_-5" value="DIspute Microservice endpoints of  Search/Accept/Evidence/Finalize/Resolve Operations" style="html=1;whiteSpace=wrap;shape=mxgraph.aws3.endpoints;labelPosition=center;verticalLabelPosition=bottom;align=center;verticalAlign=top;fontSize=11;spacing=5;strokeOpacity=100;fillOpacity=100;rounded=1;absoluteArcSize=1;arcSize=6;fillColor=#19967d;strokeWidth=1.2;" parent="1" vertex="1">
          <mxGeometry x="615" y="250" width="69" height="66" as="geometry" />
        </mxCell>
        <mxCell id="aw7KAJtfE1zUoYK_YLW_-6" value="DIspute Manager Microservice endpoint of        Create/complete/update Operations" style="html=1;whiteSpace=wrap;shape=mxgraph.aws3.endpoints;labelPosition=center;verticalLabelPosition=bottom;align=center;verticalAlign=top;fontSize=11;spacing=5;strokeOpacity=100;fillOpacity=100;rounded=1;absoluteArcSize=1;arcSize=6;fillColor=#19967d;strokeWidth=1.2;" parent="1" vertex="1">
          <mxGeometry x="615" y="490.5" width="69" height="70" as="geometry" />
        </mxCell>
        <mxCell id="aw7KAJtfE1zUoYK_YLW_-7" value="Payment Transaction" style="html=1;whiteSpace=wrap;shape=mxgraph.aws3.lambda_function;labelPosition=center;verticalLabelPosition=bottom;align=center;verticalAlign=top;fontSize=11;spacing=5;strokeOpacity=100;rounded=1;absoluteArcSize=1;arcSize=6;fillColor=#f58536;strokeWidth=1.2;" parent="1" vertex="1">
          <mxGeometry x="206.5" y="293" width="45" height="48" as="geometry" />
        </mxCell>
        <mxCell id="aw7KAJtfE1zUoYK_YLW_-8" value="AWS Assess  Step Functions" style="html=1;whiteSpace=wrap;shape=mxgraph.aws3.step_functions;labelPosition=center;verticalLabelPosition=bottom;align=center;verticalAlign=top;fontSize=11;spacing=5;strokeOpacity=100;rounded=1;absoluteArcSize=1;arcSize=6;fillColor=#d9a741;strokeWidth=1.2;" parent="1" vertex="1">
          <mxGeometry x="69.5" y="275" width="59" height="84" as="geometry" />
        </mxCell>
        <mxCell id="aw7KAJtfE1zUoYK_YLW_-10" value="&amp;nbsp;Receipt " style="html=1;whiteSpace=wrap;shape=mxgraph.aws3.lambda_function;labelPosition=center;verticalLabelPosition=bottom;align=center;verticalAlign=top;fontSize=11;spacing=5;strokeOpacity=100;rounded=1;absoluteArcSize=1;arcSize=6;fillColor=#f58536;strokeWidth=1.2;" parent="1" vertex="1">
          <mxGeometry x="145" y="390" width="45" height="48" as="geometry" />
        </mxCell>
        <mxCell id="aw7KAJtfE1zUoYK_YLW_-11" value="Assess decision " style="html=1;whiteSpace=wrap;shape=mxgraph.aws3.lambda_function;labelPosition=center;verticalLabelPosition=bottom;align=center;verticalAlign=top;fontSize=11;spacing=5;strokeOpacity=100;rounded=1;absoluteArcSize=1;arcSize=6;fillColor=#f58536;strokeWidth=1.2;" parent="1" vertex="1">
          <mxGeometry x="251.5" y="570.5" width="45" height="48" as="geometry" />
        </mxCell>
        <mxCell id="aw7KAJtfE1zUoYK_YLW_-12" value="" style="html=1;jettySize=18;fontSize=11;strokeWidth=1.2;rounded=1;arcSize=10;edgeStyle=orthogonalEdgeStyle;startArrow=none;endArrow=block;endFill=1;exitX=0.9997210312453315;exitY=0.5;exitPerimeter=1;entryX=0.024386120948778112;entryY=0.5;entryPerimeter=1;" parent="1" source="aw7KAJtfE1zUoYK_YLW_-8" target="aw7KAJtfE1zUoYK_YLW_-7" edge="1">
          <mxGeometry width="100" height="100" relative="1" as="geometry" />
        </mxCell>
        <mxCell id="aw7KAJtfE1zUoYK_YLW_-13" value="" style="html=1;jettySize=18;fontSize=11;strokeWidth=1.2;rounded=1;arcSize=10;edgeStyle=orthogonalEdgeStyle;startArrow=none;endArrow=block;endFill=1;exitX=0.995160528494483;exitY=0.5;exitPerimeter=1;entryX=0.5;entryY=0;entryPerimeter=0;entryDx=0;entryDy=0;" parent="1" source="aw7KAJtfE1zUoYK_YLW_-6" target="aw7KAJtfE1zUoYK_YLW_-3" edge="1">
          <mxGeometry width="100" height="100" relative="1" as="geometry" />
        </mxCell>
        <mxCell id="aw7KAJtfE1zUoYK_YLW_-14" value="" style="html=1;jettySize=18;fontSize=11;strokeColor=#c92d39;strokeOpacity=100;strokeWidth=2.4;rounded=1;arcSize=10;edgeStyle=orthogonalEdgeStyle;startArrow=none;endArrow=block;endFill=1;entryX=1;entryY=0.5;entryDx=0;entryDy=0;" parent="1" edge="1">
          <mxGeometry width="100" height="100" relative="1" as="geometry">
            <Array as="points">
              <mxPoint x="240" y="590" />
              <mxPoint x="240" y="620" />
              <mxPoint x="160" y="620" />
            </Array>
            <mxPoint x="250" y="590" as="sourcePoint" />
            <mxPoint x="140.5" y="619.5" as="targetPoint" />
          </mxGeometry>
        </mxCell>
        <mxCell id="MeqBdPvJB-XtYODPSLt9-54" style="edgeStyle=orthogonalEdgeStyle;rounded=0;orthogonalLoop=1;jettySize=auto;html=1;fillColor=#d80073;strokeColor=#A50040;" edge="1" parent="1" source="aw7KAJtfE1zUoYK_YLW_-15">
          <mxGeometry relative="1" as="geometry">
            <mxPoint x="590" y="600" as="targetPoint" />
            <Array as="points">
              <mxPoint x="410" y="888" />
              <mxPoint x="410" y="600" />
            </Array>
          </mxGeometry>
        </mxCell>
        <mxCell id="MeqBdPvJB-XtYODPSLt9-55" style="edgeStyle=orthogonalEdgeStyle;rounded=0;orthogonalLoop=1;jettySize=auto;html=1;entryX=1;entryY=0.652;entryDx=0;entryDy=0;entryPerimeter=0;fillColor=#d80073;strokeColor=#A50040;" edge="1" parent="1" source="aw7KAJtfE1zUoYK_YLW_-15" target="aw7KAJtfE1zUoYK_YLW_-5">
          <mxGeometry relative="1" as="geometry">
            <mxPoint x="850" y="470" as="targetPoint" />
            <Array as="points">
              <mxPoint x="182" y="1050" />
              <mxPoint x="870" y="1050" />
              <mxPoint x="870" y="306" />
              <mxPoint x="720" y="306" />
              <mxPoint x="720" y="293" />
            </Array>
          </mxGeometry>
        </mxCell>
        <mxCell id="aw7KAJtfE1zUoYK_YLW_-15" value="" style="html=1;whiteSpace=wrap;fontSize=11;spacing=0;strokeColor=#F7981F;fillOpacity=0;rounded=1;absoluteArcSize=1;arcSize=36;fillColor=#000000;strokeWidth=1.7999999999999998;" parent="1" vertex="1">
          <mxGeometry x="73" y="776" width="218" height="224" as="geometry" />
        </mxCell>
        <mxCell id="aw7KAJtfE1zUoYK_YLW_-16" value="AWS Accept Step Functions" style="html=1;whiteSpace=wrap;shape=mxgraph.aws3.step_functions;labelPosition=center;verticalLabelPosition=bottom;align=center;verticalAlign=top;fontSize=11;spacing=5;strokeOpacity=100;rounded=1;absoluteArcSize=1;arcSize=6;fillColor=#d9a741;strokeWidth=1.2;" parent="1" vertex="1">
          <mxGeometry x="84" y="776" width="54" height="81" as="geometry" />
        </mxCell>
        <mxCell id="aw7KAJtfE1zUoYK_YLW_-17" value="Accept  Dispute" style="html=1;whiteSpace=wrap;shape=mxgraph.aws3.lambda_function;labelPosition=center;verticalLabelPosition=bottom;align=center;verticalAlign=top;fontSize=11;spacing=5;strokeOpacity=100;rounded=1;absoluteArcSize=1;arcSize=6;fillColor=#f58536;strokeWidth=1.2;" parent="1" vertex="1">
          <mxGeometry x="200.5" y="793.5" width="41" height="46" as="geometry" />
        </mxCell>
        <mxCell id="MeqBdPvJB-XtYODPSLt9-57" style="edgeStyle=orthogonalEdgeStyle;rounded=0;orthogonalLoop=1;jettySize=auto;html=1;fillColor=#d80073;strokeColor=#A50040;" edge="1" parent="1" source="aw7KAJtfE1zUoYK_YLW_-18">
          <mxGeometry relative="1" as="geometry">
            <mxPoint x="870" y="883.5" as="targetPoint" />
          </mxGeometry>
        </mxCell>
        <mxCell id="aw7KAJtfE1zUoYK_YLW_-18" value="" style="html=1;whiteSpace=wrap;fontSize=11;spacing=0;strokeColor=#F7981F;fillOpacity=0;rounded=1;absoluteArcSize=1;arcSize=36;fillColor=#000000;strokeWidth=1.7999999999999998;" parent="1" vertex="1">
          <mxGeometry x="471" y="727" width="228" height="313" as="geometry" />
        </mxCell>
        <mxCell id="aw7KAJtfE1zUoYK_YLW_-19" value="AWS Deny Step Functions" style="html=1;whiteSpace=wrap;shape=mxgraph.aws3.step_functions;labelPosition=center;verticalLabelPosition=bottom;align=center;verticalAlign=top;fontSize=11;spacing=5;strokeOpacity=100;rounded=1;absoluteArcSize=1;arcSize=6;fillColor=#d9a741;strokeWidth=1.2;" parent="1" vertex="1">
          <mxGeometry x="484" y="744" width="59" height="84" as="geometry" />
        </mxCell>
        <mxCell id="aw7KAJtfE1zUoYK_YLW_-20" value="&amp;nbsp;Evidence API in Dispute Microservice" style="html=1;whiteSpace=wrap;shape=mxgraph.aws3.lambda_function;labelPosition=center;verticalLabelPosition=bottom;align=center;verticalAlign=top;fontSize=11;spacing=5;strokeOpacity=100;rounded=1;absoluteArcSize=1;arcSize=6;fillColor=#f58536;strokeWidth=1.2;" parent="1" vertex="1">
          <mxGeometry x="598" y="753" width="45" height="48" as="geometry" />
        </mxCell>
        <mxCell id="aw7KAJtfE1zUoYK_YLW_-21" value="Finalize API in Dispute Microservice" style="html=1;whiteSpace=wrap;shape=mxgraph.aws3.lambda_function;labelPosition=center;verticalLabelPosition=bottom;align=center;verticalAlign=top;fontSize=11;spacing=5;strokeOpacity=100;rounded=1;absoluteArcSize=1;arcSize=6;fillColor=#f58536;strokeWidth=1.2;" parent="1" vertex="1">
          <mxGeometry x="639" y="897" width="45" height="48" as="geometry" />
        </mxCell>
        <mxCell id="aw7KAJtfE1zUoYK_YLW_-22" value="Finalize RDS update  " style="html=1;whiteSpace=wrap;shape=mxgraph.aws3.lambda_function;labelPosition=center;verticalLabelPosition=bottom;align=center;verticalAlign=top;fontSize=11;spacing=5;strokeOpacity=100;rounded=1;absoluteArcSize=1;arcSize=6;fillColor=#f58536;strokeWidth=1.2;" parent="1" vertex="1">
          <mxGeometry x="499" y="931" width="45" height="48" as="geometry" />
        </mxCell>
        <mxCell id="aw7KAJtfE1zUoYK_YLW_-23" value="Decision" style="html=1;whiteSpace=wrap;rhombus;fontSize=11;fontColor=#000000;fontStyle=1;spacing=5;strokeOpacity=100;fillOpacity=100;rounded=1;absoluteArcSize=1;arcSize=6;fillColor=#fcc438;strokeWidth=1.2;" parent="1" vertex="1">
          <mxGeometry x="81.5" y="592" width="59" height="53" as="geometry" />
        </mxCell>
        <mxCell id="aw7KAJtfE1zUoYK_YLW_-24" value="" style="html=1;jettySize=18;fontSize=11;strokeWidth=1.2;rounded=1;arcSize=10;edgeStyle=orthogonalEdgeStyle;startArrow=none;endArrow=block;endFill=1;exitX=0.9997210312453315;exitY=0.5;exitPerimeter=1;entryX=0.024386120948778112;entryY=0.5;entryPerimeter=1;" parent="1" source="aw7KAJtfE1zUoYK_YLW_-19" target="aw7KAJtfE1zUoYK_YLW_-20" edge="1">
          <mxGeometry width="100" height="100" relative="1" as="geometry" />
        </mxCell>
        <mxCell id="aw7KAJtfE1zUoYK_YLW_-25" value="" style="html=1;jettySize=18;fontSize=11;strokeWidth=1.2;rounded=1;arcSize=10;edgeStyle=orthogonalEdgeStyle;startArrow=none;endArrow=block;endFill=1;exitX=0.9760261737102193;exitY=0.5;exitPerimeter=1;entryX=0.5;entryY=0;entryPerimeter=1;" parent="1" source="aw7KAJtfE1zUoYK_YLW_-20" target="aw7KAJtfE1zUoYK_YLW_-21" edge="1">
          <mxGeometry width="100" height="100" relative="1" as="geometry" />
        </mxCell>
        <mxCell id="MeqBdPvJB-XtYODPSLt9-19" style="edgeStyle=orthogonalEdgeStyle;rounded=0;orthogonalLoop=1;jettySize=auto;html=1;fillColor=#d80073;strokeColor=#A50040;" edge="1" parent="1" source="aw7KAJtfE1zUoYK_YLW_-26" target="aw7KAJtfE1zUoYK_YLW_-5">
          <mxGeometry relative="1" as="geometry" />
        </mxCell>
        <mxCell id="MeqBdPvJB-XtYODPSLt9-20" style="edgeStyle=orthogonalEdgeStyle;rounded=0;orthogonalLoop=1;jettySize=auto;html=1;entryX=1.075;entryY=1.05;entryDx=0;entryDy=0;entryPerimeter=0;" edge="1" parent="1" source="aw7KAJtfE1zUoYK_YLW_-26" target="MeqBdPvJB-XtYODPSLt9-22">
          <mxGeometry relative="1" as="geometry">
            <mxPoint x="380" y="180" as="targetPoint" />
            <Array as="points">
              <mxPoint x="348" y="134" />
              <mxPoint x="348" y="168" />
            </Array>
          </mxGeometry>
        </mxCell>
        <mxCell id="MeqBdPvJB-XtYODPSLt9-36" style="edgeStyle=orthogonalEdgeStyle;rounded=0;orthogonalLoop=1;jettySize=auto;html=1;entryX=0.5;entryY=0;entryDx=0;entryDy=0;" edge="1" parent="1" source="aw7KAJtfE1zUoYK_YLW_-26" target="aw7KAJtfE1zUoYK_YLW_-9">
          <mxGeometry relative="1" as="geometry">
            <Array as="points">
              <mxPoint x="288" y="215" />
              <mxPoint x="177" y="215" />
            </Array>
          </mxGeometry>
        </mxCell>
        <mxCell id="aw7KAJtfE1zUoYK_YLW_-26" value="" style="html=1;whiteSpace=wrap;shape=mxgraph.aws3.lambda_function;labelPosition=center;verticalLabelPosition=bottom;align=center;verticalAlign=top;fontSize=11;spacing=5;strokeOpacity=100;fillOpacity=100;rounded=1;absoluteArcSize=1;arcSize=6;fillColor=#7ab648;strokeWidth=1.2;" parent="1" vertex="1">
          <mxGeometry x="264" y="110" width="48" height="48" as="geometry" />
        </mxCell>
        <mxCell id="aw7KAJtfE1zUoYK_YLW_-28" value="" style="html=1;jettySize=18;fontSize=11;strokeWidth=3;rounded=1;arcSize=10;edgeStyle=orthogonalEdgeStyle;startArrow=none;endArrow=block;endFill=1;fillColor=#6a00ff;strokeColor=#3700CC;entryX=0;entryY=0.5;entryDx=0;entryDy=0;entryPerimeter=0;" parent="1" source="aw7KAJtfE1zUoYK_YLW_-5" target="aw7KAJtfE1zUoYK_YLW_-2" edge="1">
          <mxGeometry width="100" height="100" relative="1" as="geometry">
            <mxPoint x="706" y="309.5" as="sourcePoint" />
            <mxPoint x="730" y="170" as="targetPoint" />
            <Array as="points">
              <mxPoint x="710" y="280" />
              <mxPoint x="710" y="160" />
              <mxPoint x="730" y="160" />
              <mxPoint x="730" y="147" />
            </Array>
          </mxGeometry>
        </mxCell>
        <mxCell id="aw7KAJtfE1zUoYK_YLW_-29" value="Apigee Proxy" style="text;html=1;resizable=0;labelBackgroundColor=#ffffff;align=center;verticalAlign=middle;" parent="aw7KAJtfE1zUoYK_YLW_-28" vertex="1">
          <mxGeometry relative="1" as="geometry">
            <mxPoint x="-4.5" y="-15.5" as="offset" />
          </mxGeometry>
        </mxCell>
        <mxCell id="aw7KAJtfE1zUoYK_YLW_-30" value="Accept" style="html=1;jettySize=18;fontSize=15;fontColor=#c92d39;fontStyle=1;strokeColor=#c92d39;strokeOpacity=100;strokeWidth=2.4;rounded=1;arcSize=10;edgeStyle=orthogonalEdgeStyle;startArrow=none;endArrow=block;endFill=1;" parent="1" target="aw7KAJtfE1zUoYK_YLW_-15" edge="1">
          <mxGeometry width="100" height="100" relative="1" as="geometry">
            <mxPoint x="81.5" y="618.5" as="sourcePoint" />
            <mxPoint x="191.5" y="749.5" as="targetPoint" />
            <Array as="points">
              <mxPoint x="82" y="720" />
              <mxPoint x="192" y="720" />
            </Array>
          </mxGeometry>
        </mxCell>
        <mxCell id="aw7KAJtfE1zUoYK_YLW_-32" value="Deny" style="html=1;jettySize=18;fontSize=15;fontColor=#c92d39;fontStyle=1;strokeColor=#c92d39;strokeOpacity=100;strokeWidth=2.4;rounded=1;arcSize=10;edgeStyle=orthogonalEdgeStyle;startArrow=none;endArrow=block;endFill=1;exitX=0.5;exitY=0.9888475202516797;exitPerimeter=1;entryX=0.373;entryY=-0.005;entryDx=0;entryDy=0;entryPerimeter=0;" parent="1" source="aw7KAJtfE1zUoYK_YLW_-23" target="aw7KAJtfE1zUoYK_YLW_-18" edge="1">
          <mxGeometry width="100" height="100" relative="1" as="geometry">
            <Array as="points">
              <mxPoint x="111" y="670" />
              <mxPoint x="556" y="670" />
            </Array>
            <mxPoint x="500" y="690" as="targetPoint" />
          </mxGeometry>
        </mxCell>
        <mxCell id="MeqBdPvJB-XtYODPSLt9-58" value="&lt;span style=&quot;color: rgba(0 , 0 , 0 , 0) ; font-family: monospace ; font-size: 0px ; background-color: rgb(248 , 249 , 250)&quot;&gt;%3CmxGraphModel%3E%3Croot%3E%3CmxCell%20id%3D%220%22%2F%3E%3CmxCell%20id%3D%221%22%20parent%3D%220%22%2F%3E%3CmxCell%20id%3D%222%22%20value%3D%22%22%20style%3D%22outlineConnect%3D0%3Bdashed%3D0%3BverticalLabelPosition%3Dbottom%3BverticalAlign%3Dtop%3Balign%3Dcenter%3Bhtml%3D1%3Bshape%3Dmxgraph.aws3.instances%3BfillColor%3D%23F58534%3BgradientColor%3Dnone%3B%22%20vertex%3D%221%22%20parent%3D%221%22%3E%3CmxGeometry%20x%3D%22163.5%22%20y%3D%22206%22%20width%3D%2237%22%20height%3D%2240%22%20as%3D%22geometry%22%2F%3E%3C%2FmxCell%3E%3C%2Froot%3E%3C%2FmxGraphModel%3E&lt;/span&gt;" style="edgeLabel;html=1;align=center;verticalAlign=middle;resizable=0;points=[];" vertex="1" connectable="0" parent="aw7KAJtfE1zUoYK_YLW_-32">
          <mxGeometry x="0.4198" y="-1" relative="1" as="geometry">
            <mxPoint as="offset" />
          </mxGeometry>
        </mxCell>
        <mxCell id="aw7KAJtfE1zUoYK_YLW_-41" value="" style="html=1;jettySize=18;fontSize=11;strokeWidth=1.2;rounded=1;arcSize=10;edgeStyle=orthogonalEdgeStyle;startArrow=none;endArrow=block;endFill=1;exitX=0.5000000000000001;exitY=-0.002414834837222244;exitPerimeter=1;fillColor=#d80073;strokeColor=#A50040;" parent="1" source="aw7KAJtfE1zUoYK_YLW_-18" target="aw7KAJtfE1zUoYK_YLW_-6" edge="1">
          <mxGeometry width="100" height="100" relative="1" as="geometry">
            <mxPoint x="630" y="536" as="targetPoint" />
            <Array as="points">
              <mxPoint x="590" y="727" />
              <mxPoint x="590" y="536" />
            </Array>
          </mxGeometry>
        </mxCell>
        <mxCell id="aw7KAJtfE1zUoYK_YLW_-42" value="Update Disputes" style="text;html=1;resizable=0;labelBackgroundColor=#ffffff;align=center;verticalAlign=middle;" parent="aw7KAJtfE1zUoYK_YLW_-41" vertex="1">
          <mxGeometry x="-0.4346822039232453" relative="1" as="geometry" />
        </mxCell>
        <mxCell id="aw7KAJtfE1zUoYK_YLW_-44" value="" style="html=1;jettySize=18;fontSize=11;strokeWidth=1.2;rounded=1;arcSize=10;edgeStyle=orthogonalEdgeStyle;startArrow=none;endArrow=block;endFill=1;exitX=0.024386120948778112;exitY=0.5;exitPerimeter=1;entryX=0.9760261737102193;entryY=0.5;entryPerimeter=1;" parent="1" source="aw7KAJtfE1zUoYK_YLW_-21" target="aw7KAJtfE1zUoYK_YLW_-22" edge="1">
          <mxGeometry width="100" height="100" relative="1" as="geometry" />
        </mxCell>
        <mxCell id="aw7KAJtfE1zUoYK_YLW_-46" value=" Update the Dispute Manager " style="html=1;whiteSpace=wrap;shape=mxgraph.aws3.lambda_function;labelPosition=center;verticalLabelPosition=bottom;align=center;verticalAlign=top;fontSize=11;spacing=5;strokeOpacity=100;rounded=1;absoluteArcSize=1;arcSize=6;fillColor=#f58536;strokeWidth=1.2;" parent="1" vertex="1">
          <mxGeometry x="195.5" y="885" width="41" height="46" as="geometry" />
        </mxCell>
        <mxCell id="aw7KAJtfE1zUoYK_YLW_-47" value="" style="html=1;jettySize=18;fontSize=11;strokeWidth=1.2;rounded=1;arcSize=10;edgeStyle=orthogonalEdgeStyle;startArrow=none;endArrow=block;endFill=1;exitX=0.9723041106406768;exitY=0.5000000000000008;exitPerimeter=1;entryX=0.9723041106406761;entryY=0.5000000000000022;entryPerimeter=1;" parent="1" source="aw7KAJtfE1zUoYK_YLW_-17" target="aw7KAJtfE1zUoYK_YLW_-46" edge="1">
          <mxGeometry width="100" height="100" relative="1" as="geometry" />
        </mxCell>
        <mxCell id="aw7KAJtfE1zUoYK_YLW_-48" value="" style="html=1;jettySize=18;fontSize=11;strokeWidth=1.2;rounded=1;arcSize=10;edgeStyle=orthogonalEdgeStyle;startArrow=none;endArrow=block;endFill=1;exitX=0.9997242910892696;exitY=0.5000000000000003;exitPerimeter=1;entryX=0.027145340085878485;entryY=0.5000000000000008;entryPerimeter=1;" parent="1" source="aw7KAJtfE1zUoYK_YLW_-16" target="aw7KAJtfE1zUoYK_YLW_-17" edge="1">
          <mxGeometry width="100" height="100" relative="1" as="geometry" />
        </mxCell>
        <mxCell id="aw7KAJtfE1zUoYK_YLW_-58" value="&amp;nbsp;Order" style="html=1;whiteSpace=wrap;shape=mxgraph.aws3.lambda_function;labelPosition=center;verticalLabelPosition=bottom;align=center;verticalAlign=top;fontSize=11;spacing=5;strokeOpacity=100;rounded=1;absoluteArcSize=1;arcSize=6;fillColor=#f58536;strokeWidth=1.2;" parent="1" vertex="1">
          <mxGeometry x="257.5" y="390" width="45" height="48" as="geometry" />
        </mxCell>
        <mxCell id="aw7KAJtfE1zUoYK_YLW_-59" value="" style="html=1;jettySize=18;fontSize=11;strokeWidth=1.2;rounded=1;arcSize=10;edgeStyle=orthogonalEdgeStyle;startArrow=none;endArrow=block;endFill=1;exitX=0.5;exitY=0.749925;exitPerimeter=1;entryX=0.5;entryY=0;entryPerimeter=1;" parent="1" source="aw7KAJtfE1zUoYK_YLW_-7" target="aw7KAJtfE1zUoYK_YLW_-10" edge="1">
          <mxGeometry width="100" height="100" relative="1" as="geometry" />
        </mxCell>
        <mxCell id="aw7KAJtfE1zUoYK_YLW_-60" value="" style="html=1;jettySize=18;fontSize=11;strokeWidth=1.2;rounded=1;arcSize=10;edgeStyle=orthogonalEdgeStyle;startArrow=none;endArrow=block;endFill=1;exitX=0.5;exitY=0.749925;exitPerimeter=1;entryX=0.5;entryY=0;entryPerimeter=1;" parent="1" source="aw7KAJtfE1zUoYK_YLW_-7" target="aw7KAJtfE1zUoYK_YLW_-58" edge="1">
          <mxGeometry width="100" height="100" relative="1" as="geometry" />
        </mxCell>
        <mxCell id="aw7KAJtfE1zUoYK_YLW_-67" style="edgeStyle=orthogonalEdgeStyle;rounded=0;orthogonalLoop=1;jettySize=auto;html=1;entryX=1;entryY=0.5;entryDx=0;entryDy=0;entryPerimeter=0;" parent="1" source="aw7KAJtfE1zUoYK_YLW_-62" target="aw7KAJtfE1zUoYK_YLW_-65" edge="1">
          <mxGeometry relative="1" as="geometry" />
        </mxCell>
        <mxCell id="aw7KAJtfE1zUoYK_YLW_-62" value="&amp;nbsp;Rules" style="html=1;whiteSpace=wrap;shape=mxgraph.aws3.lambda_function;labelPosition=center;verticalLabelPosition=bottom;align=center;verticalAlign=top;fontSize=11;spacing=5;strokeOpacity=100;rounded=1;absoluteArcSize=1;arcSize=6;fillColor=#f58536;strokeWidth=1.2;" parent="1" vertex="1">
          <mxGeometry x="206.5" y="463" width="45" height="48" as="geometry" />
        </mxCell>
        <mxCell id="aw7KAJtfE1zUoYK_YLW_-63" value="" style="html=1;jettySize=18;fontSize=11;strokeWidth=1.2;rounded=1;arcSize=10;edgeStyle=orthogonalEdgeStyle;startArrow=none;endArrow=block;endFill=1;exitX=0.9760261737102193;exitY=0.5;exitPerimeter=1;entryX=0.5;entryY=0;entryPerimeter=1;" parent="1" source="aw7KAJtfE1zUoYK_YLW_-10" target="aw7KAJtfE1zUoYK_YLW_-62" edge="1">
          <mxGeometry width="100" height="100" relative="1" as="geometry" />
        </mxCell>
        <mxCell id="aw7KAJtfE1zUoYK_YLW_-64" value="&lt;span style=&quot;font-family: &amp;#34;helvetica&amp;#34; , &amp;#34;arial&amp;#34; , sans-serif ; font-size: 0px ; background-color: rgb(248 , 249 , 250)&quot;&gt;%3CmxGraphModel%3E%3Croot%3E%3CmxCell%20id%3D%220%22%2F%3E%3CmxCell%20id%3D%221%22%20parent%3D%220%22%2F%3E%3CmxCell%20id%3D%222%22%20value%3D%22%26lt%3Bfont%20color%3D%26quot%3B%23ff0000%26quot%3B%26gt%3B%26lt%3Bb%26gt%3B3%26lt%3B%2Fb%26gt%3B%26lt%3B%2Ffont%26gt%3B%22%20style%3D%22text%3Bhtml%3D1%3Bresizable%3D0%3Bpoints%3D%5B%5D%3Bautosize%3D1%3Balign%3Dleft%3BverticalAlign%3Dtop%3BspacingTop%3D-4%3B%22%20vertex%3D%221%22%20parent%3D%221%22%3E%3CmxGeometry%20x%3D%22549.5%22%20y%3D%22340%22%20width%3D%2220%22%20height%3D%2220%22%20as%3D%22geometry%22%2F%3E%3C%2FmxCell%3E%3C%2Froot%3E%3C%2FmxGraphModel%3E&lt;/span&gt;" style="html=1;jettySize=18;fontSize=11;strokeWidth=1.2;rounded=1;arcSize=10;edgeStyle=orthogonalEdgeStyle;startArrow=none;endArrow=block;endFill=1;exitX=0.024386120948778112;exitY=0.5;exitPerimeter=1;entryX=0.5;entryY=0;entryPerimeter=1;" parent="1" source="aw7KAJtfE1zUoYK_YLW_-58" target="aw7KAJtfE1zUoYK_YLW_-62" edge="1">
          <mxGeometry width="100" height="100" relative="1" as="geometry" />
        </mxCell>
        <mxCell id="aw7KAJtfE1zUoYK_YLW_-68" style="edgeStyle=orthogonalEdgeStyle;rounded=0;orthogonalLoop=1;jettySize=auto;html=1;entryX=0.5;entryY=0;entryDx=0;entryDy=0;entryPerimeter=0;exitX=0.855;exitY=0.855;exitDx=0;exitDy=0;exitPerimeter=0;" parent="1" source="aw7KAJtfE1zUoYK_YLW_-65" target="aw7KAJtfE1zUoYK_YLW_-66" edge="1">
          <mxGeometry relative="1" as="geometry">
            <Array as="points">
              <mxPoint x="127" y="515" />
              <mxPoint x="179" y="515" />
            </Array>
          </mxGeometry>
        </mxCell>
        <mxCell id="aw7KAJtfE1zUoYK_YLW_-65" value="Booking Logistics" style="html=1;whiteSpace=wrap;shape=mxgraph.aws3.lambda_function;labelPosition=center;verticalLabelPosition=bottom;align=center;verticalAlign=top;fontSize=11;spacing=5;strokeOpacity=100;rounded=1;absoluteArcSize=1;arcSize=6;fillColor=#f58536;strokeWidth=1.2;" parent="1" vertex="1">
          <mxGeometry x="88.5" y="463" width="45" height="48" as="geometry" />
        </mxCell>
        <mxCell id="aw7KAJtfE1zUoYK_YLW_-69" style="edgeStyle=orthogonalEdgeStyle;rounded=0;orthogonalLoop=1;jettySize=auto;html=1;entryX=0.5;entryY=0;entryDx=0;entryDy=0;entryPerimeter=0;" parent="1" source="aw7KAJtfE1zUoYK_YLW_-66" target="aw7KAJtfE1zUoYK_YLW_-11" edge="1">
          <mxGeometry relative="1" as="geometry">
            <Array as="points">
              <mxPoint x="274" y="558" />
            </Array>
          </mxGeometry>
        </mxCell>
        <mxCell id="aw7KAJtfE1zUoYK_YLW_-66" value="&amp;nbsp;Usage" style="html=1;whiteSpace=wrap;shape=mxgraph.aws3.lambda_function;labelPosition=center;verticalLabelPosition=bottom;align=center;verticalAlign=top;fontSize=11;spacing=5;strokeOpacity=100;rounded=1;absoluteArcSize=1;arcSize=6;fillColor=#f58536;strokeWidth=1.2;" parent="1" vertex="1">
          <mxGeometry x="156.5" y="534" width="45" height="48" as="geometry" />
        </mxCell>
        <mxCell id="aw7KAJtfE1zUoYK_YLW_-82" value="" style="html=1;jettySize=18;fontSize=11;strokeWidth=3;rounded=1;arcSize=10;edgeStyle=orthogonalEdgeStyle;startArrow=none;endArrow=block;endFill=1;fillColor=#6a00ff;strokeColor=#3700CC;" parent="1" edge="1">
          <mxGeometry width="100" height="100" relative="1" as="geometry">
            <mxPoint x="141" y="1060" as="sourcePoint" />
            <mxPoint x="73" y="1060" as="targetPoint" />
            <Array as="points">
              <mxPoint x="91" y="1060" />
              <mxPoint x="91" y="1060" />
            </Array>
          </mxGeometry>
        </mxCell>
        <mxCell id="aw7KAJtfE1zUoYK_YLW_-84" value="&lt;font color=&quot;#7f00ff&quot;&gt;Outside VPC&lt;/font&gt;" style="text;html=1;resizable=0;points=[];autosize=1;align=left;verticalAlign=top;spacingTop=-4;" parent="1" vertex="1">
          <mxGeometry x="153" y="1048" width="80" height="20" as="geometry" />
        </mxCell>
        <mxCell id="L5zDY-PGdZ8znGRGJ4vw-38" value="&lt;font color=&quot;#ff0000&quot;&gt;&lt;b&gt;1&lt;/b&gt;&lt;/font&gt;" style="text;html=1;resizable=0;points=[];autosize=1;align=left;verticalAlign=top;spacingTop=-4;" parent="1" vertex="1">
          <mxGeometry x="168.5" y="138" width="20" height="20" as="geometry" />
        </mxCell>
        <mxCell id="L5zDY-PGdZ8znGRGJ4vw-44" value="" style="html=1;jettySize=18;fontSize=11;strokeWidth=2;rounded=1;arcSize=10;startArrow=none;endArrow=block;endFill=1;fontStyle=0" parent="1" edge="1">
          <mxGeometry width="100" height="100" relative="1" as="geometry">
            <mxPoint x="141" y="1089" as="sourcePoint" />
            <mxPoint x="75" y="1089" as="targetPoint" />
          </mxGeometry>
        </mxCell>
        <mxCell id="L5zDY-PGdZ8znGRGJ4vw-47" value="&lt;b&gt;Inside VPC&lt;/b&gt;" style="text;html=1;resizable=0;points=[];autosize=1;align=left;verticalAlign=top;spacingTop=-4;" parent="1" vertex="1">
          <mxGeometry x="156.5" y="1080" width="80" height="20" as="geometry" />
        </mxCell>
        <mxCell id="MeqBdPvJB-XtYODPSLt9-7" value="Search Disputes" style="text;html=1;align=center;verticalAlign=middle;resizable=0;points=[];autosize=1;" vertex="1" parent="1">
          <mxGeometry x="238" y="90" width="100" height="20" as="geometry" />
        </mxCell>
        <mxCell id="MeqBdPvJB-XtYODPSLt9-11" value="" style="outlineConnect=0;dashed=0;verticalLabelPosition=bottom;verticalAlign=top;align=center;html=1;shape=mxgraph.aws3.instances;fillColor=#F58534;gradientColor=none;" vertex="1" parent="1">
          <mxGeometry x="214.5" y="226" width="37" height="40" as="geometry" />
        </mxCell>
        <mxCell id="MeqBdPvJB-XtYODPSLt9-17" value="&lt;font color=&quot;#ff0000&quot;&gt;&lt;b&gt;2&lt;/b&gt;&lt;/font&gt;" style="text;html=1;resizable=0;points=[];autosize=1;align=left;verticalAlign=top;spacingTop=-4;" vertex="1" parent="1">
          <mxGeometry x="520" y="110" width="20" height="20" as="geometry" />
        </mxCell>
        <mxCell id="MeqBdPvJB-XtYODPSLt9-21" value="&lt;font color=&quot;#ff0000&quot;&gt;&lt;b&gt;3&lt;/b&gt;&lt;/font&gt;" style="text;html=1;resizable=0;points=[];autosize=1;align=left;verticalAlign=top;spacingTop=-4;" vertex="1" parent="1">
          <mxGeometry x="297" y="158" width="20" height="20" as="geometry" />
        </mxCell>
        <mxCell id="MeqBdPvJB-XtYODPSLt9-22" value="&lt;font color=&quot;#ff0000&quot;&gt;&lt;b&gt;4&lt;/b&gt;&lt;/font&gt;" style="text;html=1;resizable=0;points=[];autosize=1;align=left;verticalAlign=top;spacingTop=-4;" vertex="1" parent="1">
          <mxGeometry x="384.5" y="147" width="20" height="20" as="geometry" />
        </mxCell>
        <mxCell id="MeqBdPvJB-XtYODPSLt9-30" style="edgeStyle=orthogonalEdgeStyle;rounded=0;orthogonalLoop=1;jettySize=auto;html=1;entryX=1;entryY=0.5;entryDx=0;entryDy=0;entryPerimeter=0;" edge="1" parent="1" source="MeqBdPvJB-XtYODPSLt9-23" target="MeqBdPvJB-XtYODPSLt9-24">
          <mxGeometry relative="1" as="geometry">
            <Array as="points">
              <mxPoint x="480" y="163" />
              <mxPoint x="480" y="230" />
            </Array>
          </mxGeometry>
        </mxCell>
        <mxCell id="MeqBdPvJB-XtYODPSLt9-23" value="" style="outlineConnect=0;fontColor=#232F3E;gradientColor=none;fillColor=#BC1356;strokeColor=none;dashed=0;verticalLabelPosition=bottom;verticalAlign=top;align=center;html=1;fontSize=12;fontStyle=0;aspect=fixed;pointerEvents=1;shape=mxgraph.aws4.queue;" vertex="1" parent="1">
          <mxGeometry x="404.5" y="148" width="49.79" height="30" as="geometry" />
        </mxCell>
        <mxCell id="MeqBdPvJB-XtYODPSLt9-31" style="edgeStyle=orthogonalEdgeStyle;rounded=0;orthogonalLoop=1;jettySize=auto;html=1;" edge="1" parent="1" source="MeqBdPvJB-XtYODPSLt9-24">
          <mxGeometry relative="1" as="geometry">
            <mxPoint x="270" y="270" as="targetPoint" />
          </mxGeometry>
        </mxCell>
        <mxCell id="MeqBdPvJB-XtYODPSLt9-24" value="" style="html=1;whiteSpace=wrap;shape=mxgraph.aws3.lambda_function;labelPosition=center;verticalLabelPosition=bottom;align=center;verticalAlign=top;fontSize=11;spacing=5;strokeOpacity=100;fillOpacity=100;rounded=1;absoluteArcSize=1;arcSize=6;fillColor=#7ab648;strokeWidth=1.2;" vertex="1" parent="1">
          <mxGeometry x="406.29" y="202" width="48" height="48" as="geometry" />
        </mxCell>
        <mxCell id="MeqBdPvJB-XtYODPSLt9-25" value="Search Consumer" style="text;html=1;align=center;verticalAlign=middle;resizable=0;points=[];autosize=1;" vertex="1" parent="1">
          <mxGeometry x="370" y="250" width="110" height="20" as="geometry" />
        </mxCell>
        <mxCell id="MeqBdPvJB-XtYODPSLt9-28" value="&lt;span style=&quot;font-size: 11px&quot;&gt;AWS Cloud Watch &lt;br&gt;Event Scheduler (Cron Job)&lt;/span&gt;" style="text;html=1;align=center;verticalAlign=middle;resizable=0;points=[];autosize=1;" vertex="1" parent="1">
          <mxGeometry y="158" width="150" height="40" as="geometry" />
        </mxCell>
        <mxCell id="MeqBdPvJB-XtYODPSLt9-34" value="&lt;font color=&quot;#ff0000&quot;&gt;&lt;b&gt;5&lt;/b&gt;&lt;/font&gt;" style="text;html=1;resizable=0;points=[];autosize=1;align=left;verticalAlign=top;spacingTop=-4;" vertex="1" parent="1">
          <mxGeometry x="490" y="186" width="20" height="20" as="geometry" />
        </mxCell>
        <mxCell id="MeqBdPvJB-XtYODPSLt9-38" value="&lt;font color=&quot;#ff0000&quot;&gt;&lt;b&gt;6&lt;/b&gt;&lt;/font&gt;" style="text;html=1;resizable=0;points=[];autosize=1;align=left;verticalAlign=top;spacingTop=-4;" vertex="1" parent="1">
          <mxGeometry x="330" y="206" width="20" height="20" as="geometry" />
        </mxCell>
        <mxCell id="MeqBdPvJB-XtYODPSLt9-52" style="edgeStyle=orthogonalEdgeStyle;rounded=0;orthogonalLoop=1;jettySize=auto;html=1;exitX=0.5;exitY=1;exitDx=0;exitDy=0;" edge="1" parent="1" source="aw7KAJtfE1zUoYK_YLW_-18" target="aw7KAJtfE1zUoYK_YLW_-18">
          <mxGeometry relative="1" as="geometry" />
        </mxCell>
        <mxCell id="MeqBdPvJB-XtYODPSLt9-59" value="" style="outlineConnect=0;dashed=0;verticalLabelPosition=bottom;verticalAlign=top;align=center;html=1;shape=mxgraph.aws3.instances;fillColor=#F58534;gradientColor=none;" vertex="1" parent="1">
          <mxGeometry x="511.5" y="680" width="37" height="40" as="geometry" />
        </mxCell>
        <mxCell id="MeqBdPvJB-XtYODPSLt9-64" value="" style="outlineConnect=0;dashed=0;verticalLabelPosition=bottom;verticalAlign=top;align=center;html=1;shape=mxgraph.aws3.instances;fillColor=#F58534;gradientColor=none;" vertex="1" parent="1">
          <mxGeometry x="199.5" y="727" width="37" height="40" as="geometry" />
        </mxCell>
        <mxCell id="MeqBdPvJB-XtYODPSLt9-65" value="" style="html=1;whiteSpace=wrap;shape=mxgraph.aws3.lambda_function;labelPosition=center;verticalLabelPosition=bottom;align=center;verticalAlign=top;fontSize=11;spacing=5;strokeOpacity=100;fillOpacity=100;rounded=1;absoluteArcSize=1;arcSize=6;fillColor=#7ab648;strokeWidth=1.2;" vertex="1" parent="1">
          <mxGeometry x="950" y="139" width="48" height="48" as="geometry" />
        </mxCell>
        <mxCell id="MeqBdPvJB-XtYODPSLt9-66" value="RDS Sync up Job&lt;br&gt;" style="text;html=1;align=center;verticalAlign=middle;resizable=0;points=[];autosize=1;" vertex="1" parent="1">
          <mxGeometry x="998" y="153" width="110" height="20" as="geometry" />
        </mxCell>
        <mxCell id="MeqBdPvJB-XtYODPSLt9-71" value="" style="html=1;whiteSpace=wrap;shape=mxgraph.aws3.lambda_function;labelPosition=center;verticalLabelPosition=bottom;align=center;verticalAlign=top;fontSize=11;spacing=5;strokeOpacity=100;fillOpacity=100;rounded=1;absoluteArcSize=1;arcSize=6;fillColor=#7ab648;strokeWidth=1.2;" vertex="1" parent="1">
          <mxGeometry x="950" y="202" width="48" height="48" as="geometry" />
        </mxCell>
        <mxCell id="MeqBdPvJB-XtYODPSLt9-72" value="Resolve Operation" style="text;html=1;align=center;verticalAlign=middle;resizable=0;points=[];autosize=1;" vertex="1" parent="1">
          <mxGeometry x="998" y="216" width="110" height="20" as="geometry" />
        </mxCell>
      </root>
    </mxGraphModel>
  </diagram>
</mxfile>
